<?xml version="1.0" standalone="no"?>
<!DOCTYPE svg PUBLIC "-//W3C//DTD SVG 20010904//EN"
 "http://www.w3.org/TR/2001/REC-SVG-20010904/DTD/svg10.dtd">
<svg version="1.0" xmlns="http://www.w3.org/2000/svg"
 width="512.000000pt" height="512.000000pt" viewBox="0 0 512.000000 512.000000"
 preserveAspectRatio="xMidYMid meet">

<g transform="translate(0.000000,512.000000) scale(0.100000,-0.100000)"
fill="#FFFFFF" stroke="none">
<path d="M332 4863 c-18 -9 -45 -32 -60 -51 l-27 -35 -3 -601 c-2 -454 0 -612
10 -646 24 -90 133 -170 230 -170 94 0 199 78 226 168 8 26 12 125 12 288 l0
249 603 -602 c331 -330 618 -609 637 -619 22 -11 58 -18 96 -18 174 0 292 184
217 339 -8 17 -286 301 -616 633 l-602 602 251 0 c296 0 320 5 387 80 90 100
90 220 0 320 -74 83 -51 80 -732 80 -531 0 -600 -2 -629 -17z"/>
<path d="M3520 4867 c-49 -16 -133 -102 -148 -153 -28 -94 -8 -169 63 -239 31
-32 65 -55 91 -63 28 -8 124 -12 290 -12 l249 0 -602 -602 c-330 -332 -608
-616 -616 -633 -53 -111 -9 -246 102 -308 65 -37 153 -42 211 -13 19 10 306
289 638 619 l602 602 0 -249 c0 -166 4 -262 12 -290 16 -55 99 -138 154 -154
96 -28 182 -4 247 68 24 26 49 66 55 88 9 28 12 203 12 631 0 656 2 636 -66
687 l-37 29 -611 2 c-426 1 -622 -2 -646 -10z"/>
<path d="M1970 2277 c-27 -8 -177 -151 -642 -616 l-608 -606 0 249 c0 163 -4
262 -12 288 -27 90 -132 168 -226 168 -97 0 -206 -80 -230 -170 -10 -34 -12
-192 -10 -646 l3 -601 29 -37 c51 -68 31 -66 689 -66 679 0 656 -2 730 80 90
100 90 220 0 320 -67 75 -91 80 -387 80 l-251 0 606 608 c646 648 629 628 629
724 0 126 -117 240 -244 237 -22 -1 -57 -6 -76 -12z"/>
<path d="M2975 2261 c-49 -23 -99 -74 -119 -123 -20 -48 -20 -138 -1 -186 11
-26 198 -219 613 -634 l597 -598 -249 0 c-166 0 -262 -4 -290 -12 -86 -26
-166 -136 -166 -228 0 -95 81 -204 170 -228 34 -10 192 -12 647 -10 590 3 602
3 629 24 15 11 37 33 48 48 21 27 21 39 24 629 2 441 0 613 -9 645 -17 61 -87
136 -146 156 -97 33 -175 15 -248 -59 -32 -31 -55 -65 -63 -91 -8 -28 -12
-124 -12 -290 l0 -249 -597 597 c-416 415 -609 602 -635 613 -51 21 -144 19
-193 -4z"/>
</g>
</svg>
