<?xml version="1.0" standalone="no"?>
<!DOCTYPE svg PUBLIC "-//W3C//DTD SVG 20010904//EN"
 "http://www.w3.org/TR/2001/REC-SVG-20010904/DTD/svg10.dtd">
<svg version="1.0" xmlns="http://www.w3.org/2000/svg"
 width="512.000000pt" height="512.000000pt" viewBox="0 0 512.000000 512.000000"
 preserveAspectRatio="xMidYMid meet">

<g transform="translate(0.000000,512.000000) scale(0.100000,-0.100000)"
fill="#FFFFFF" stroke="none">
<path d="M705 4947 c-68 -23 -101 -44 -148 -97 -83 -93 -82 -81 -82 -690 0
-493 1 -539 18 -588 25 -70 101 -152 169 -183 l53 -24 560 0 560 0 57 28 c62
30 115 83 150 149 19 36 23 58 23 138 0 80 -4 102 -23 138 -35 66 -88 119
-150 149 -52 26 -69 28 -202 33 l-145 5 87 53 c266 162 539 245 848 259 779
34 1495 -458 1740 -1196 73 -218 84 -295 84 -561 0 -266 -11 -343 -84 -561
-147 -442 -476 -817 -895 -1019 -545 -264 -1178 -234 -1692 81 -249 153 -477
392 -622 654 -103 185 -178 418 -201 626 -7 57 -19 127 -27 155 -47 161 -234
260 -395 209 -81 -25 -145 -78 -187 -155 -36 -64 -36 -66 -34 -175 2 -132 37
-332 89 -501 122 -405 327 -740 630 -1034 371 -359 814 -577 1334 -657 163
-24 511 -24 675 1 682 104 1273 477 1654 1046 190 283 318 612 377 965 27 157
27 573 1 730 -161 963 -852 1724 -1781 1960 -217 55 -342 70 -591 69 -244 0
-369 -14 -571 -63 -257 -64 -532 -183 -744 -325 -62 -42 -117 -76 -121 -76 -4
0 -9 55 -11 123 -4 136 -17 172 -84 247 -73 80 -218 120 -319 87z"/>
</g>
</svg>
